<?xml version="1.0" standalone="no"?>
<!DOCTYPE svg PUBLIC "-//W3C//DTD SVG 20010904//EN"
 "http://www.w3.org/TR/2001/REC-SVG-20010904/DTD/svg10.dtd">
<svg version="1.0" xmlns="http://www.w3.org/2000/svg"
 width="1225.000000pt" height="1029.000000pt" viewBox="0 0 1225.000000 1029.000000"
 preserveAspectRatio="xMidYMid meet">

<g transform="translate(0.000000,1029.000000) scale(0.100000,-0.100000)"
fill="#000000" stroke="none">
<path d="M3300 10259 c-388 -38 -726 -210 -944 -481 -77 -94 -171 -247 -211
-343 -15 -35 -256 -652 -534 -1371 l-506 -1307 -75 -18 c-239 -56 -506 -228
-683 -438 -164 -194 -259 -388 -320 -653 -21 -93 -21 -95 -24 -1850 l-4 -1758
490 0 490 0 3 -617 4 -618 27 -100 c86 -320 295 -545 593 -638 392 -123 825
19 1043 341 94 139 145 294 161 489 5 69 10 355 10 634 l0 509 3305 0 3304 0
3 -622 c4 -615 4 -624 27 -708 88 -322 301 -547 610 -644 126 -40 257 -52 388
-37 405 46 694 307 789 711 15 66 18 146 21 687 l4 613 490 0 490 0 -4 1752
-3 1753 -23 100 c-12 55 -34 134 -47 175 -147 439 -531 809 -948 915 l-89 23
-509 1313 c-279 723 -531 1361 -559 1419 -198 411 -529 663 -991 752 l-113 22
-2790 2 c-1534 1 -2828 -2 -2875 -7z m5668 -968 c120 -44 215 -132 287 -263
20 -37 218 -556 440 -1155 l403 -1088 -1990 -3 c-1094 -1 -2882 -1 -3973 0
l-1983 3 339 915 c187 503 365 985 395 1070 76 212 124 306 194 382 71 78 143
122 240 147 74 20 122 20 2830 18 l2755 -2 63 -24z m-6870 -3527 c297 -60 536
-282 638 -594 26 -79 28 -96 28 -255 1 -189 -9 -242 -69 -372 -145 -314 -433
-503 -765 -503 -239 0 -436 83 -604 254 -202 206 -288 509 -227 801 48 230
181 427 375 554 80 52 214 106 300 120 85 14 242 12 324 -5z m8437 -8 c33 -9
106 -39 162 -66 208 -102 366 -295 440 -537 24 -79 27 -103 27 -243 0 -140 -3
-164 -27 -243 -90 -294 -301 -509 -587 -599 -65 -20 -96 -23 -225 -23 -169 0
-231 12 -352 70 -188 89 -334 235 -422 427 -52 111 -71 191 -78 320 -9 163 21
307 92 448 115 228 334 399 580 454 88 20 303 15 390 -8z"/>
</g>
</svg>
